<svg width="19" height="16" viewBox="0 0 19 16" fill="none" xmlns="http://www.w3.org/2000/svg">
<path d="M3 1.5C2.46957 1.5 1.96086 1.71071 1.58579 2.08579C1.21071 2.46086 1 2.96957 1 3.5V6C1.53043 6 2.03914 6.21071 2.41421 6.58579C2.78929 6.96086 3 7.46957 3 8C3 8.53043 2.78929 9.03914 2.41421 9.41421C2.03914 9.78929 1.53043 10 1 10V12.5C1 13.0304 1.21071 13.5391 1.58579 13.9142C1.96086 14.2893 2.46957 14.5 3 14.5H16C16.5304 14.5 17.0391 14.2893 17.4142 13.9142C17.7893 13.5391 18 13.0304 18 12.5V10C17.4696 10 16.9609 9.78929 16.5858 9.41421C16.2107 9.03914 16 8.53043 16 8C16 7.46957 16.2107 6.96086 16.5858 6.58579C16.9609 6.21071 17.4696 6 18 6V3.5C18 2.96957 17.7893 2.46086 17.4142 2.08579C17.0391 1.71071 16.5304 1.5 16 1.5H3Z" stroke="black" stroke-width="1.7" stroke-linecap="round" stroke-linejoin="round"/>
</svg>
